<svg width="406" height="305" viewBox="0 0 406 305" fill="none" xmlns="http://www.w3.org/2000/svg">
<path fill-rule="evenodd" clip-rule="evenodd" d="M35.0432 183.966C10.301 161.193 -7.22993 121.13 4.56262 89.6231C17.0915 56.1493 59.984 46.4457 92.2718 31.0654C113.139 21.1253 135.763 18.2523 158.779 16.1621C175.912 14.6061 192.271 22.7281 209.321 20.4354C233.421 17.1949 253.785 -0.246686 278.096 0.11848C316.11 0.689482 362.194 -4.93987 387.8 23.1163C411.54 49.1277 407.954 94.5695 393.715 126.801C379.888 158.1 331.98 159.895 314.402 189.259C294.31 222.825 325.296 287.117 288.996 301.74C251.778 316.733 222.381 260.915 188.093 240.142C168.832 228.473 152.233 213.835 131.087 206.073C99.7173 194.559 59.6196 206.585 35.0432 183.966Z" />
</svg>
