<svg width="337" height="332" viewBox="0 0 337 332" fill="none" xmlns="http://www.w3.org/2000/svg">
<path fill-rule="evenodd" clip-rule="evenodd" d="M243.995 260.379C264.324 249.067 287.712 240.104 300.783 220.914C314.09 201.379 310.776 176.99 316.028 154.628C322.628 126.531 340.965 98.7295 335.894 71.4379C330.707 43.5152 314.052 15.6283 288.137 4.49806C261.785 -6.81964 229.28 13.6313 199.62 12.9099C173.488 12.2742 150.551 -1.52579 124.23 0.511031C94.6202 2.80226 54.9251 -0.182409 38.1524 25.4045C18.976 54.6582 51.5264 90.1421 43.7608 123.267C38.1912 147.024 -6.14784 162.015 0.934623 184.16C9.33259 210.418 66.3922 193.124 74.5329 219.483C85.0227 253.448 20.9766 300.672 44.836 326.307C65.9595 349.003 104.738 296.193 136.884 286.475C154.607 281.117 172.617 286.627 190.526 282.264C209.261 277.7 226.841 269.924 243.995 260.379Z" />
</svg>
