<svg width="500" height="447" viewBox="0 0 500 447" fill="none" xmlns="http://www.w3.org/2000/svg">
<path fill-rule="evenodd" clip-rule="evenodd" d="M498.708 309.512C488.819 358.008 421.838 363.554 380.217 388.614C344.222 410.287 313.018 445.981 271.849 446.105C230.801 446.228 204.02 405.28 166.397 389.256C111.556 365.899 18.0153 390.437 1.9642 331.158C-14.2931 271.118 74.6369 234.515 110.543 182.982C132.609 151.315 145.254 115.822 171.539 87.7877C203.276 53.9374 233.487 13.5092 277.835 4.55229C325.632 -5.10156 384.53 0.34956 414.952 38.625C445.432 76.9726 406.938 137.935 421.639 185.48C436.542 233.68 508.934 259.363 498.708 309.512Z" />
</svg>
